<svg xmlns="http://www.w3.org/2000/svg" xmlns:xlink="http://www.w3.org/1999/xlink" viewBox="0 0 210.41 210.41"><defs><style>.cls-1{fill:url(#Gradiente_sem_nome_13);}.cls-2{fill:#e16162;}.cls-3{fill:url(#Gradiente_sem_nome_11);}</style><linearGradient id="Gradiente_sem_nome_13" x1="105.2" y1="98.91" x2="105.2" y2="17.4" gradientUnits="userSpaceOnUse"><stop offset="0" stop-color="#f3754f"/><stop offset="1" stop-color="#fca311"/></linearGradient><linearGradient id="Gradiente_sem_nome_11" x1="105.2" y1="210.41" x2="105.2" gradientUnits="userSpaceOnUse"><stop offset="0" stop-color="#ca516c"/><stop offset="1" stop-color="#fca311"/></linearGradient></defs><g id="Camada_2" data-name="Camada 2"><g id="Camada_1-2" data-name="Camada 1"><path class="cls-1" d="M76.64,70.55q-5.44,9-9.91,13.08l-6-7.41A58.89,58.89,0,0,0,69,64.85a81.45,81.45,0,0,0,6.93-14.49H63.47v-9.6H76.64V31.65q-7,1.16-11.74,1.52l-1.74-8.62a140.16,140.16,0,0,0,16-2.7A82.83,82.83,0,0,0,93.93,17.4l4.64,8.71a74.8,74.8,0,0,1-10.72,3.26V40.76h8.71v9.6H87.85v1.92q3.23,5,10.9,11.61l-5,8.67a70.83,70.83,0,0,1-5.9-6.43V98.91H76.64Zm45.07.31a61.4,61.4,0,0,1-25,27.24l-6.21-8.62q10.23-5.76,17-17.59a49.72,49.72,0,0,0,6.81-25.19V18.16h12.28V46.07a43.25,43.25,0,0,0,6.61,23.18,71.68,71.68,0,0,0,16.44,18.49L141,97.17Q128.81,87.26,121.71,70.86Zm-10.23-39.7a154.91,154.91,0,0,1-5.31,31.53l-10.5-2.28a173.4,173.4,0,0,0,5-30ZM148.15,30q-1.67,8.36-4.6,18.83T139,62l-9.56-2.5q2.76-10.94,6.92-31.3Z"/><rect class="cls-2" x="82.96" y="168.77" width="44.26" height="11.52"/><path class="cls-3" d="M105.2,0A105.21,105.21,0,1,0,210.41,105.2,105.2,105.2,0,0,0,105.2,0ZM140,194.18H127.22v-3.57H83v3.3H70.46v-35H140Zm6.83-60.11H111.46v8.62h32.29v10.58H66.48V142.69h31.8v-8.62H63.63V123.39H98.28V113.7h13.18v9.69h35.32ZM105.2,105.2a95.31,95.31,0,0,0-80.44,44.14,93.74,93.74,0,1,1,160.89,0A95.31,95.31,0,0,0,105.2,105.2Z"/></g></g></svg>